<svg xmlns="http://www.w3.org/2000/svg" width="1200" height="620" viewBox="0 0 1200 620" role="img" aria-label="Adapting to challenges growth path graphic">
  <rect width="1200" height="620" fill="#ffffff"/>
  <rect x="40" y="40" width="1120" height="540" rx="28" fill="#fff" stroke="#000" stroke-width="4"/>
  <text x="90" y="110" font-family="Space Grotesk, Arial" font-size="42" font-weight="700" fill="#000">Adapting to Challenges</text>
  <text x="90" y="148" font-family="Space Grotesk, Arial" font-size="24" fill="#222">Leadership and release-process reflection</text>

  <path d="M120 470 C280 460, 340 390, 470 350 C620 300, 700 230, 840 190 C930 165, 1030 150, 1080 145" fill="none" stroke="#00bcd4" stroke-width="12" stroke-linecap="round"/>

  <circle cx="210" cy="458" r="48" fill="#effcff" stroke="#000" stroke-width="3"/>
  <text x="168" y="466" font-family="Space Grotesk, Arial" font-size="20" font-weight="700" fill="#000">Challenge</text>

  <circle cx="520" cy="332" r="52" fill="#ddf8ff" stroke="#000" stroke-width="3"/>
  <text x="491" y="340" font-family="Space Grotesk, Arial" font-size="20" font-weight="700" fill="#000">Adapt</text>

  <circle cx="860" cy="182" r="56" fill="#caf4ff" stroke="#000" stroke-width="3"/>
  <text x="835" y="190" font-family="Space Grotesk, Arial" font-size="20" font-weight="700" fill="#000">Grow</text>

  <rect x="120" y="230" width="320" height="160" rx="16" fill="#f7fcff" stroke="#000" stroke-width="2"/>
  <text x="146" y="270" font-family="Space Grotesk, Arial" font-size="20" fill="#111">- Ownership of app releases</text>
  <text x="146" y="302" font-family="Space Grotesk, Arial" font-size="20" fill="#111">- Pipeline-based transition</text>
  <text x="146" y="334" font-family="Space Grotesk, Arial" font-size="20" fill="#111">- Team guidance pressure</text>

  <rect x="700" y="330" width="360" height="160" rx="16" fill="#f2fbff" stroke="#000" stroke-width="2"/>
  <text x="726" y="370" font-family="Space Grotesk, Arial" font-size="20" fill="#111">- Clear communication</text>
  <text x="726" y="402" font-family="Space Grotesk, Arial" font-size="20" fill="#111">- Consistent execution</text>
  <text x="726" y="434" font-family="Space Grotesk, Arial" font-size="20" fill="#111">- Thoughtful decisions</text>
</svg>
